  <svg t="1606034316183" class="icon" viewBox="0 0 1024 1024" version="1.1" xmlns="http://www.w3.org/2000/svg"
        p-id="3707" width="200" height="200">
        <path d="M512 512m-512 0a512 512 0 1 0 1024 0 512 512 0 1 0-1024 0Z" fill="#E0EAFF" p-id="3708"></path>
        <path
            d="M723.213474 371.992253c-27.917474-161.630316-182.164211-172.614063-211.213474-172.614064s-183.306779 10.983747-211.267368 172.614064 119.021137 248.325389 161.630315 357.052631h99.166316c42.673853-108.694905 189.590905-195.368421 161.684211-357.052631z"
            fill="#00ABFF" p-id="3709"></path>
        <path
            d="M561.593937 739.856168h-99.166316a10.778947 10.778947 0 0 1-10.0352-6.833852c-14.012632-35.829221-40.162358-69.556547-67.810358-105.256421-53.237221-68.737347-113.566989-146.593684-94.402021-257.616842 30.472084-176.472926 202.3424-181.560589 221.830737-181.56059s191.369432 5.087663 221.841516 181.56059c19.164968 110.926147-41.175579 188.836379-94.402021 257.616842-27.648 35.699874-53.765389 69.4272-67.810358 105.256421a10.778947 10.778947 0 0 1-10.045979 6.833852z m-91.976758-21.557894h84.765642c15.554021-36.001684 41.067789-68.985263 67.9936-103.73659 52.978526-68.392421 107.789474-139.134653 90.21979-240.704673C685.120674 214.770526 529.634358 210.189474 511.989221 210.189474s-173.109895 4.581053-200.585432 163.667537c-17.548126 101.570021 37.230484 172.312253 90.209011 240.704673 26.925811 34.783663 52.439579 67.734905 68.004379 103.73659z"
            fill="#383C50" p-id="3710"></path>
        <path
            d="M607.426021 371.992253c-12.611368-161.630316-82.318821-172.614063-95.426021-172.614064s-82.814653 10.983747-95.4368 172.614064 53.776168 248.325389 73.027368 357.052631h44.808085c19.2512-108.694905 85.638737-195.368421 73.027368-357.052631z"
            fill="#21D486" p-id="3711"></path>
        <path
            d="M534.398653 739.856168h-44.808085a10.778947 10.778947 0 0 1-10.606484-8.892631 680.022232 680.022232 0 0 0-30.881684-106.226526c-23.799916-67.982821-50.758063-145.030737-42.275032-253.553179C419.667537 193.751579 502.5792 188.631579 511.989221 188.631579s92.343242 5.12 106.183411 182.552253c8.461474 108.522442-18.496674 185.570358-42.275032 253.553179a678.836547 678.836547 0 0 0-30.881684 106.226526 10.778947 10.778947 0 0 1-10.617263 8.892631z m-35.883116-21.557894h26.947368a754.418526 754.418526 0 0 1 30.062484-100.686148c24.220295-69.200842 49.259789-140.751495 41.143243-244.746779-12.546695-160.821895-81.747537-162.675874-84.69019-162.675873s-72.121937 1.853979-84.668631 162.675873c-8.127326 103.995284 16.912168 175.556716 41.121684 244.746779a749.837474 749.837474 0 0 1 30.084042 100.686148z"
            fill="#383C50" p-id="3712"></path>
        <path
            d="M561.583158 729.077221h-99.166316v45.918316a49.583158 49.583158 0 0 0 49.583158 49.583158 49.583158 49.583158 0 0 0 49.583158-49.583158z"
            fill="#FFFFFF" p-id="3713"></path>
        <path
            d="M512 835.368421a60.437558 60.437558 0 0 1-60.362105-60.362105v-45.918316a10.778947 10.778947 0 0 1 10.778947-10.778947h99.166316a10.778947 10.778947 0 0 1 10.778947 10.778947v45.918316a60.448337 60.448337 0 0 1-60.362105 60.362105z m-38.804211-95.512253v35.139369a38.804211 38.804211 0 1 0 77.608422 0v-35.139369z"
            fill="#383C50" p-id="3714"></path>
        <path d="M512 729.077221V199.410526" fill="#21D486" p-id="3715"></path>
        <path
            d="M511.989221 739.856168a10.778947 10.778947 0 0 1-10.778947-10.778947V199.410526a10.778947 10.778947 0 0 1 21.557894 0v529.666695a10.778947 10.778947 0 0 1-10.778947 10.778947z"
            fill="#383C50" p-id="3716"></path>
    </svg>